<svg xmlns="http://www.w3.org/2000/svg" xmlns:xlink="http://www.w3.org/1999/xlink" width="500" zoomAndPan="magnify" viewBox="0 0 375 374.999991" height="500" preserveAspectRatio="xMidYMid meet" version="1.2"><defs><clipPath id="518a13f572"><path d="M 68 52.652344 L 308 52.652344 L 308 324 L 68 324 Z M 68 52.652344 "/></clipPath></defs><g id="9c6ae9de04"><rect x="0" width="375" y="0" height="374.999991" style="fill:#ffffff;fill-opacity:1;stroke:none;"/><rect x="0" width="375" y="0" height="374.999991" style="fill:#373434;fill-opacity:1;stroke:none;"/><g clip-rule="nonzero" clip-path="url(#518a13f572)"><path style=" stroke:none;fill-rule:nonzero;fill:#ffde59;fill-opacity:1;" d="M 230.761719 166.820312 L 230.761719 184.324219 L 247.457031 184.324219 L 219.128906 212.65625 L 190.804688 184.332031 L 207.515625 184.332031 L 207.515625 166.824219 C 211.273438 167.53125 215.164062 167.921875 219.128906 167.921875 C 223.113281 167.917969 226.992188 167.53125 230.761719 166.820312 Z M 244.710938 233.324219 L 264.832031 222.382812 C 260.367188 217.375 252.855469 215.875 246.738281 219.210938 L 234.894531 225.65625 C 238.847656 227.3125 242.230469 229.984375 244.710938 233.324219 Z M 284.910156 221.40625 L 248.554688 241.179688 C 249.726562 245.449219 249.710938 250.078125 248.269531 254.589844 C 244.304688 266.910156 231 273.71875 218.679688 269.75 L 185.707031 259.128906 C 183.710938 258.480469 182.597656 256.332031 183.242188 254.320312 L 183.570312 253.28125 C 184.21875 251.28125 186.382812 250.167969 188.382812 250.8125 L 221.359375 261.4375 C 229.097656 263.917969 237.453125 259.636719 239.945312 251.894531 C 240.632812 249.789062 240.804688 247.628906 240.535156 245.539062 C 239.828125 240.035156 236.039062 235.125 230.417969 233.320312 C 213.480469 227.863281 196.546875 222.40625 179.605469 216.953125 C 166.050781 212.578125 152.765625 213.824219 140.261719 220.632812 L 108.316406 238.019531 L 139.632812 292.394531 C 148.078125 288.414062 156.972656 287.871094 166.035156 290.789062 L 184.613281 296.769531 C 194.425781 299.921875 204.042969 299.039062 213.101562 294.09375 L 299.023438 247.335938 C 306.15625 243.460938 308.820312 234.441406 304.945312 227.300781 C 301.050781 220.171875 292.050781 217.515625 284.910156 221.40625 Z M 94.683594 231.851562 C 93.632812 230.015625 91.257812 229.382812 89.425781 230.441406 L 70.25 241.484375 C 68.398438 242.53125 67.765625 244.90625 68.824219 246.742188 L 111.96875 321.644531 C 113.015625 323.480469 115.390625 324.125 117.226562 323.054688 L 136.402344 312.011719 C 138.238281 310.960938 138.882812 308.585938 137.8125 306.753906 Z M 165.871094 105.90625 C 165.871094 76.5 189.722656 52.648438 219.128906 52.648438 C 235.785156 52.648438 250.628906 60.28125 260.398438 72.242188 C 248.359375 78.648438 240.15625 91.3125 240.15625 105.90625 C 240.15625 120.503906 248.363281 133.183594 260.398438 139.574219 C 250.628906 151.535156 235.785156 159.167969 219.128906 159.167969 C 189.722656 159.167969 165.871094 135.320312 165.871094 105.90625 Z M 202.089844 93.464844 C 202.089844 98.09375 203.984375 102.304688 207.039062 105.335938 C 209.625 107.933594 213.066406 109.695312 216.898438 110.160156 C 217.226562 110.234375 217.578125 110.28125 217.921875 110.28125 L 219.363281 110.28125 C 221.589844 110.28125 223.601562 111.199219 225.074219 112.65625 C 226.53125 114.132812 227.449219 116.144531 227.449219 118.367188 C 227.449219 120.578125 226.53125 122.601562 225.074219 124.0625 C 223.601562 125.535156 221.585938 126.453125 219.363281 126.453125 L 216.480469 126.453125 C 215.171875 126.453125 213.941406 126.132812 212.859375 125.59375 C 211.71875 125.003906 210.726562 124.167969 209.976562 123.144531 C 208.53125 121.21875 205.8125 120.816406 203.871094 122.242188 C 201.949219 123.667969 201.546875 126.40625 202.972656 128.328125 C 204.535156 130.449219 206.578125 132.179688 208.9375 133.375 C 210.722656 134.277344 212.710938 134.875 214.785156 135.089844 L 214.785156 141.953125 C 214.785156 144.359375 216.738281 146.328125 219.140625 146.328125 C 221.558594 146.328125 223.515625 144.359375 223.515625 141.953125 L 223.515625 134.664062 C 226.488281 133.894531 229.152344 132.347656 231.253906 130.25 C 234.304688 127.199219 236.1875 122.988281 236.1875 118.363281 C 236.1875 113.734375 234.308594 109.523438 231.253906 106.476562 C 228.65625 103.878906 225.210938 102.117188 221.394531 101.667969 C 221.066406 101.578125 220.714844 101.542969 220.355469 101.542969 L 218.914062 101.542969 C 216.703125 101.542969 214.675781 100.628906 213.21875 99.152344 C 211.746094 97.695312 210.84375 95.664062 210.84375 93.460938 C 210.84375 91.234375 211.746094 89.222656 213.21875 87.75 C 214.675781 86.292969 216.707031 85.375 218.914062 85.375 L 221.796875 85.375 C 223.117188 85.375 224.351562 85.675781 225.433594 86.234375 C 226.574219 86.804688 227.554688 87.644531 228.320312 88.667969 C 229.746094 90.605469 232.480469 91.011719 234.40625 89.585938 C 236.34375 88.140625 236.75 85.421875 235.320312 83.480469 C 233.757812 81.378906 231.71875 79.632812 229.359375 78.445312 C 227.554688 77.527344 225.589844 76.945312 223.511719 76.71875 L 223.511719 69.871094 C 223.511719 67.453125 221.554688 65.5 219.136719 65.5 C 216.730469 65.5 214.777344 67.453125 214.777344 69.871094 L 214.777344 77.164062 C 211.804688 77.914062 209.140625 79.480469 207.039062 81.578125 C 203.984375 84.632812 202.089844 88.835938 202.089844 93.464844 Z M 278.253906 76.558594 C 294.425781 76.558594 307.605469 89.738281 307.605469 105.90625 C 307.605469 122.078125 294.425781 135.273438 278.253906 135.273438 C 262.085938 135.273438 248.890625 122.078125 248.890625 105.90625 C 248.890625 89.738281 262.085938 76.558594 278.253906 76.558594 Z M 261.949219 107.773438 L 271.582031 117.40625 C 273.277344 119.105469 276.042969 119.105469 277.757812 117.40625 L 294.542969 100.605469 C 296.253906 98.910156 296.253906 96.140625 294.542969 94.429688 C 292.84375 92.71875 290.078125 92.71875 288.367188 94.429688 L 274.660156 108.132812 L 268.125 101.597656 C 266.425781 99.886719 263.660156 99.886719 261.949219 101.597656 C 260.25 103.292969 260.25 106.0625 261.949219 107.773438 Z M 261.949219 107.773438 "/></g><g style="fill:#000000;fill-opacity:1;"><g transform="translate(-5.046123, 380.624975)"><path style="stroke:none" d="M 5 0.15625 C 3.726562 0.15625 2.726562 -0.226562 2 -1 C 1.269531 -1.769531 0.90625 -2.84375 0.90625 -4.21875 C 0.90625 -5.59375 1.242188 -6.6875 1.921875 -7.5 C 2.597656 -8.3125 3.507812 -8.71875 4.65625 -8.71875 C 5.726562 -8.71875 6.578125 -8.363281 7.203125 -7.65625 C 7.828125 -6.957031 8.140625 -6.03125 8.140625 -4.875 L 8.140625 -4.046875 L 2.25 -4.046875 C 2.269531 -3.046875 2.519531 -2.285156 3 -1.765625 C 3.488281 -1.242188 4.171875 -0.984375 5.046875 -0.984375 C 5.960938 -0.984375 6.875 -1.175781 7.78125 -1.5625 L 7.78125 -0.40625 C 7.320312 -0.207031 6.882812 -0.0664062 6.46875 0.015625 C 6.0625 0.109375 5.570312 0.15625 5 0.15625 Z M 4.640625 -7.640625 C 3.953125 -7.640625 3.40625 -7.414062 3 -6.96875 C 2.59375 -6.519531 2.351562 -5.898438 2.28125 -5.109375 L 6.75 -5.109375 C 6.75 -5.921875 6.566406 -6.546875 6.203125 -6.984375 C 5.835938 -7.421875 5.316406 -7.640625 4.640625 -7.640625 Z M 4.640625 -7.640625 "/></g></g></g></svg>