<svg xmlns="http://www.w3.org/2000/svg" xmlns:xlink="http://www.w3.org/1999/xlink" width="500" zoomAndPan="magnify" viewBox="0 0 375 374.999991" height="500" preserveAspectRatio="xMidYMid meet" version="1.2"><defs><clipPath id="0208d65032"><path d="M 3.933594 6.875 L 372.183594 6.875 L 372.183594 375 L 3.933594 375 Z M 3.933594 6.875 "/></clipPath><clipPath id="2f3c86e7dc"><path d="M 55.921875 6.875 L 320.195312 6.875 C 321.898438 6.875 323.597656 6.960938 325.292969 7.125 C 326.984375 7.292969 328.667969 7.542969 330.335938 7.875 C 332.007812 8.207031 333.65625 8.621094 335.285156 9.113281 C 336.914062 9.609375 338.515625 10.183594 340.089844 10.832031 C 341.664062 11.484375 343.199219 12.210938 344.703125 13.015625 C 346.203125 13.816406 347.664062 14.691406 349.078125 15.636719 C 350.492188 16.582031 351.859375 17.597656 353.175781 18.675781 C 354.492188 19.757812 355.753906 20.898438 356.957031 22.101562 C 358.160156 23.308594 359.300781 24.566406 360.382812 25.882812 C 361.464844 27.199219 362.476562 28.566406 363.421875 29.980469 C 364.367188 31.398438 365.242188 32.855469 366.042969 34.359375 C 366.847656 35.859375 367.574219 37.398438 368.226562 38.96875 C 368.878906 40.542969 369.449219 42.144531 369.945312 43.773438 C 370.4375 45.402344 370.851562 47.050781 371.183594 48.722656 C 371.515625 50.390625 371.765625 52.074219 371.933594 53.769531 C 372.101562 55.464844 372.183594 57.160156 372.183594 58.863281 L 372.183594 323.136719 C 372.183594 324.839844 372.101562 326.539062 371.933594 328.234375 C 371.765625 329.929688 371.515625 331.609375 371.183594 333.28125 C 370.851562 334.949219 370.4375 336.601562 369.945312 338.230469 C 369.449219 339.859375 368.878906 341.460938 368.226562 343.03125 C 367.574219 344.605469 366.847656 346.144531 366.042969 347.644531 C 365.242188 349.148438 364.367188 350.605469 363.421875 352.019531 C 362.476562 353.4375 361.464844 354.804688 360.382812 356.121094 C 359.300781 357.433594 358.160156 358.695312 356.957031 359.898438 C 355.753906 361.101562 354.492188 362.246094 353.175781 363.324219 C 351.859375 364.40625 350.492188 365.417969 349.078125 366.363281 C 347.664062 367.3125 346.203125 368.183594 344.703125 368.988281 C 343.199219 369.789062 341.664062 370.515625 340.089844 371.167969 C 338.515625 371.820312 336.914062 372.394531 335.285156 372.886719 C 333.65625 373.382812 332.007812 373.796875 330.335938 374.128906 C 328.667969 374.460938 326.984375 374.710938 325.292969 374.875 C 323.597656 375.042969 321.898438 375.125 320.195312 375.125 L 55.921875 375.125 C 54.21875 375.125 52.519531 375.042969 50.824219 374.875 C 49.132812 374.710938 47.449219 374.460938 45.78125 374.128906 C 44.109375 373.796875 42.460938 373.382812 40.832031 372.886719 C 39.199219 372.394531 37.601562 371.820312 36.027344 371.167969 C 34.453125 370.515625 32.917969 369.789062 31.414062 368.988281 C 29.914062 368.183594 28.453125 367.3125 27.039062 366.363281 C 25.621094 365.417969 24.257812 364.40625 22.941406 363.324219 C 21.625 362.246094 20.363281 361.101562 19.160156 359.898438 C 17.957031 358.695312 16.816406 357.433594 15.734375 356.121094 C 14.652344 354.804688 13.640625 353.4375 12.695312 352.019531 C 11.75 350.605469 10.875 349.148438 10.070312 347.644531 C 9.269531 346.144531 8.542969 344.605469 7.890625 343.03125 C 7.238281 341.460938 6.667969 339.859375 6.171875 338.230469 C 5.679688 336.601562 5.265625 334.949219 4.933594 333.28125 C 4.601562 331.609375 4.351562 329.929688 4.183594 328.234375 C 4.015625 326.539062 3.933594 324.839844 3.933594 323.136719 L 3.933594 58.863281 C 3.933594 57.160156 4.015625 55.464844 4.183594 53.769531 C 4.351562 52.074219 4.601562 50.390625 4.933594 48.722656 C 5.265625 47.050781 5.679688 45.402344 6.171875 43.773438 C 6.667969 42.144531 7.238281 40.542969 7.890625 38.96875 C 8.542969 37.398438 9.269531 35.859375 10.070312 34.359375 C 10.875 32.855469 11.75 31.398438 12.695312 29.980469 C 13.640625 28.566406 14.652344 27.199219 15.734375 25.882812 C 16.816406 24.566406 17.957031 23.308594 19.160156 22.101562 C 20.363281 20.898438 21.625 19.757812 22.941406 18.675781 C 24.257812 17.597656 25.621094 16.582031 27.039062 15.636719 C 28.453125 14.691406 29.914062 13.816406 31.414062 13.015625 C 32.917969 12.210938 34.453125 11.484375 36.027344 10.832031 C 37.601562 10.183594 39.199219 9.609375 40.832031 9.113281 C 42.460938 8.621094 44.109375 8.207031 45.78125 7.875 C 47.449219 7.542969 49.132812 7.292969 50.824219 7.125 C 52.519531 6.960938 54.21875 6.875 55.921875 6.875 Z M 55.921875 6.875 "/></clipPath><linearGradient x1="-0.001" gradientTransform="matrix(4.332353,0,0,4.332353,3.933505,6.87641)" y1="0.00000141112" x2="-0.001" gradientUnits="userSpaceOnUse" y2="84.970815" id="f09d41904a"><stop style="stop-color:#00b2ff;stop-opacity:1;" offset="0"/><stop style="stop-color:#00b2ff;stop-opacity:1;" offset="0.0078125"/><stop style="stop-color:#00b1ff;stop-opacity:1;" offset="0.015625"/><stop style="stop-color:#00b1ff;stop-opacity:1;" offset="0.0234375"/><stop style="stop-color:#00b0ff;stop-opacity:1;" offset="0.03125"/><stop style="stop-color:#00afff;stop-opacity:1;" offset="0.0390625"/><stop style="stop-color:#00afff;stop-opacity:1;" offset="0.046875"/><stop style="stop-color:#00aeff;stop-opacity:1;" offset="0.0546875"/><stop style="stop-color:#00aeff;stop-opacity:1;" offset="0.0625"/><stop style="stop-color:#00adff;stop-opacity:1;" offset="0.0703125"/><stop style="stop-color:#00adff;stop-opacity:1;" offset="0.078125"/><stop style="stop-color:#00acff;stop-opacity:1;" offset="0.0859375"/><stop style="stop-color:#00acff;stop-opacity:1;" offset="0.09375"/><stop style="stop-color:#00abff;stop-opacity:1;" offset="0.101562"/><stop style="stop-color:#00aaff;stop-opacity:1;" offset="0.109375"/><stop style="stop-color:#00aaff;stop-opacity:1;" offset="0.117188"/><stop style="stop-color:#00a9ff;stop-opacity:1;" offset="0.125"/><stop style="stop-color:#00a9ff;stop-opacity:1;" offset="0.132812"/><stop style="stop-color:#00a8ff;stop-opacity:1;" offset="0.140625"/><stop style="stop-color:#00a8ff;stop-opacity:1;" offset="0.148438"/><stop style="stop-color:#00a7ff;stop-opacity:1;" offset="0.15625"/><stop style="stop-color:#00a6ff;stop-opacity:1;" offset="0.164063"/><stop style="stop-color:#00a6ff;stop-opacity:1;" offset="0.171875"/><stop style="stop-color:#00a5ff;stop-opacity:1;" offset="0.179688"/><stop style="stop-color:#00a5ff;stop-opacity:1;" offset="0.1875"/><stop style="stop-color:#00a4ff;stop-opacity:1;" offset="0.195313"/><stop style="stop-color:#00a4ff;stop-opacity:1;" offset="0.203125"/><stop style="stop-color:#00a3ff;stop-opacity:1;" offset="0.210938"/><stop style="stop-color:#00a3ff;stop-opacity:1;" offset="0.21875"/><stop style="stop-color:#00a2ff;stop-opacity:1;" offset="0.226563"/><stop style="stop-color:#00a1ff;stop-opacity:1;" offset="0.234375"/><stop style="stop-color:#00a1ff;stop-opacity:1;" offset="0.242188"/><stop style="stop-color:#00a0ff;stop-opacity:1;" offset="0.25"/><stop style="stop-color:#00a0ff;stop-opacity:1;" offset="0.257813"/><stop style="stop-color:#009fff;stop-opacity:1;" offset="0.265625"/><stop style="stop-color:#009fff;stop-opacity:1;" offset="0.273438"/><stop style="stop-color:#009eff;stop-opacity:1;" offset="0.28125"/><stop style="stop-color:#009dff;stop-opacity:1;" offset="0.289062"/><stop style="stop-color:#009dff;stop-opacity:1;" offset="0.296875"/><stop style="stop-color:#009cff;stop-opacity:1;" offset="0.304688"/><stop style="stop-color:#009cff;stop-opacity:1;" offset="0.3125"/><stop style="stop-color:#009bff;stop-opacity:1;" offset="0.320313"/><stop style="stop-color:#009bff;stop-opacity:1;" offset="0.328125"/><stop style="stop-color:#009aff;stop-opacity:1;" offset="0.335938"/><stop style="stop-color:#009aff;stop-opacity:1;" offset="0.34375"/><stop style="stop-color:#0099ff;stop-opacity:1;" offset="0.351563"/><stop style="stop-color:#0098ff;stop-opacity:1;" offset="0.359375"/><stop style="stop-color:#0098ff;stop-opacity:1;" offset="0.367188"/><stop style="stop-color:#0097ff;stop-opacity:1;" offset="0.375"/><stop style="stop-color:#0097ff;stop-opacity:1;" offset="0.382813"/><stop style="stop-color:#0096ff;stop-opacity:1;" offset="0.390625"/><stop style="stop-color:#0096ff;stop-opacity:1;" offset="0.398438"/><stop style="stop-color:#0095ff;stop-opacity:1;" offset="0.40625"/><stop style="stop-color:#0095ff;stop-opacity:1;" offset="0.414063"/><stop style="stop-color:#0094ff;stop-opacity:1;" offset="0.421875"/><stop style="stop-color:#0093ff;stop-opacity:1;" offset="0.429688"/><stop style="stop-color:#0093ff;stop-opacity:1;" offset="0.4375"/><stop style="stop-color:#0092ff;stop-opacity:1;" offset="0.445313"/><stop style="stop-color:#0092ff;stop-opacity:1;" offset="0.453125"/><stop style="stop-color:#0091ff;stop-opacity:1;" offset="0.460938"/><stop style="stop-color:#0091ff;stop-opacity:1;" offset="0.46875"/><stop style="stop-color:#0090ff;stop-opacity:1;" offset="0.476563"/><stop style="stop-color:#008fff;stop-opacity:1;" offset="0.484375"/><stop style="stop-color:#008fff;stop-opacity:1;" offset="0.492188"/><stop style="stop-color:#008eff;stop-opacity:1;" offset="0.5"/><stop style="stop-color:#008eff;stop-opacity:1;" offset="0.507812"/><stop style="stop-color:#008dff;stop-opacity:1;" offset="0.515625"/><stop style="stop-color:#008dff;stop-opacity:1;" offset="0.523438"/><stop style="stop-color:#008cff;stop-opacity:1;" offset="0.53125"/><stop style="stop-color:#008cff;stop-opacity:1;" offset="0.539062"/><stop style="stop-color:#008bff;stop-opacity:1;" offset="0.546875"/><stop style="stop-color:#008aff;stop-opacity:1;" offset="0.554688"/><stop style="stop-color:#008aff;stop-opacity:1;" offset="0.5625"/><stop style="stop-color:#0089ff;stop-opacity:1;" offset="0.570312"/><stop style="stop-color:#0089ff;stop-opacity:1;" offset="0.578125"/><stop style="stop-color:#0088ff;stop-opacity:1;" offset="0.585937"/><stop style="stop-color:#0088ff;stop-opacity:1;" offset="0.59375"/><stop style="stop-color:#0087ff;stop-opacity:1;" offset="0.601562"/><stop style="stop-color:#0086ff;stop-opacity:1;" offset="0.609375"/><stop style="stop-color:#0086ff;stop-opacity:1;" offset="0.617188"/><stop style="stop-color:#0085ff;stop-opacity:1;" offset="0.625"/><stop style="stop-color:#0085ff;stop-opacity:1;" offset="0.632812"/><stop style="stop-color:#0084ff;stop-opacity:1;" offset="0.640625"/><stop style="stop-color:#0084ff;stop-opacity:1;" offset="0.648438"/><stop style="stop-color:#0083ff;stop-opacity:1;" offset="0.65625"/><stop style="stop-color:#0083ff;stop-opacity:1;" offset="0.664063"/><stop style="stop-color:#0082ff;stop-opacity:1;" offset="0.671875"/><stop style="stop-color:#0081ff;stop-opacity:1;" offset="0.679688"/><stop style="stop-color:#0081ff;stop-opacity:1;" offset="0.6875"/><stop style="stop-color:#0080ff;stop-opacity:1;" offset="0.695312"/><stop style="stop-color:#0080ff;stop-opacity:1;" offset="0.703125"/><stop style="stop-color:#007fff;stop-opacity:1;" offset="0.710938"/><stop style="stop-color:#007fff;stop-opacity:1;" offset="0.71875"/><stop style="stop-color:#007eff;stop-opacity:1;" offset="0.726562"/><stop style="stop-color:#007dff;stop-opacity:1;" offset="0.734375"/><stop style="stop-color:#007dff;stop-opacity:1;" offset="0.742188"/><stop style="stop-color:#007cff;stop-opacity:1;" offset="0.75"/><stop style="stop-color:#007cff;stop-opacity:1;" offset="0.757812"/><stop style="stop-color:#007bff;stop-opacity:1;" offset="0.765625"/><stop style="stop-color:#007bff;stop-opacity:1;" offset="0.773438"/><stop style="stop-color:#007aff;stop-opacity:1;" offset="0.78125"/><stop style="stop-color:#007aff;stop-opacity:1;" offset="0.789062"/><stop style="stop-color:#0079ff;stop-opacity:1;" offset="0.796875"/><stop style="stop-color:#0078ff;stop-opacity:1;" offset="0.804688"/><stop style="stop-color:#0078ff;stop-opacity:1;" offset="0.8125"/><stop style="stop-color:#0077ff;stop-opacity:1;" offset="0.820312"/><stop style="stop-color:#0077ff;stop-opacity:1;" offset="0.828125"/><stop style="stop-color:#0076ff;stop-opacity:1;" offset="0.835937"/><stop style="stop-color:#0076ff;stop-opacity:1;" offset="0.84375"/><stop style="stop-color:#0075ff;stop-opacity:1;" offset="0.851562"/><stop style="stop-color:#0074ff;stop-opacity:1;" offset="0.859375"/><stop style="stop-color:#0074ff;stop-opacity:1;" offset="0.867188"/><stop style="stop-color:#0073ff;stop-opacity:1;" offset="0.875"/><stop style="stop-color:#0073ff;stop-opacity:1;" offset="0.882812"/><stop style="stop-color:#0072ff;stop-opacity:1;" offset="0.890625"/><stop style="stop-color:#0072ff;stop-opacity:1;" offset="0.898438"/><stop style="stop-color:#0071ff;stop-opacity:1;" offset="0.90625"/><stop style="stop-color:#0071ff;stop-opacity:1;" offset="0.914063"/><stop style="stop-color:#0070ff;stop-opacity:1;" offset="0.921875"/><stop style="stop-color:#006fff;stop-opacity:1;" offset="0.929688"/><stop style="stop-color:#006fff;stop-opacity:1;" offset="0.9375"/><stop style="stop-color:#006eff;stop-opacity:1;" offset="0.945312"/><stop style="stop-color:#006eff;stop-opacity:1;" offset="0.953125"/><stop style="stop-color:#006dff;stop-opacity:1;" offset="0.960938"/><stop style="stop-color:#006dff;stop-opacity:1;" offset="0.96875"/><stop style="stop-color:#006cff;stop-opacity:1;" offset="0.976562"/><stop style="stop-color:#006cff;stop-opacity:1;" offset="0.984375"/><stop style="stop-color:#006bff;stop-opacity:1;" offset="0.992188"/><stop style="stop-color:#006aff;stop-opacity:1;" offset="1"/></linearGradient></defs><g id="2514c93f85"><rect x="0" width="375" y="0" height="374.999991" style="fill:#ffffff;fill-opacity:1;stroke:none;"/><rect x="0" width="375" y="0" height="374.999991" style="fill:#373434;fill-opacity:1;stroke:none;"/><g clip-rule="nonzero" clip-path="url(#0208d65032)"><g clip-rule="nonzero" clip-path="url(#2f3c86e7dc)"><path style=" stroke:none;fill-rule:nonzero;fill:url(#f09d41904a);" d="M 3.933594 6.875 L 3.933594 375 L 372.183594 375 L 372.183594 6.875 Z M 3.933594 6.875 "/></g></g><path style=" stroke:none;fill-rule:nonzero;fill:#ffffff;fill-opacity:1;" d="M 202.214844 304.066406 L 157.324219 304.066406 L 157.324219 188.617188 L 129.570312 188.617188 L 129.570312 150.539062 L 157.324219 150.539062 L 157.324219 138.300781 C 157.324219 117.851562 162.027344 102.386719 171.429688 91.910156 C 180.929688 81.433594 196.199219 76.195312 217.226562 76.195312 C 221.070312 76.195312 225.71875 76.445312 231.179688 76.949219 C 236.738281 77.351562 241.238281 77.804688 244.675781 78.308594 L 244.675781 115.9375 C 243.058594 115.734375 240.632812 115.53125 237.398438 115.332031 C 234.261719 115.027344 231.835938 114.878906 230.117188 114.878906 C 220.210938 114.878906 213.082031 116.894531 208.734375 120.921875 C 204.386719 124.953125 202.214844 131.902344 202.214844 141.773438 L 202.214844 150.539062 L 243.765625 150.539062 L 238.761719 188.617188 L 202.214844 188.617188 Z M 202.214844 304.066406 "/><g style="fill:#000000;fill-opacity:1;"><g transform="translate(-5.046123, 380.624975)"><path style="stroke:none" d="M 5 0.15625 C 3.726562 0.15625 2.726562 -0.226562 2 -1 C 1.269531 -1.769531 0.90625 -2.84375 0.90625 -4.21875 C 0.90625 -5.59375 1.242188 -6.6875 1.921875 -7.5 C 2.597656 -8.3125 3.507812 -8.71875 4.65625 -8.71875 C 5.726562 -8.71875 6.578125 -8.363281 7.203125 -7.65625 C 7.828125 -6.957031 8.140625 -6.03125 8.140625 -4.875 L 8.140625 -4.046875 L 2.25 -4.046875 C 2.269531 -3.046875 2.519531 -2.285156 3 -1.765625 C 3.488281 -1.242188 4.171875 -0.984375 5.046875 -0.984375 C 5.960938 -0.984375 6.875 -1.175781 7.78125 -1.5625 L 7.78125 -0.40625 C 7.320312 -0.207031 6.882812 -0.0664062 6.46875 0.015625 C 6.0625 0.109375 5.570312 0.15625 5 0.15625 Z M 4.640625 -7.640625 C 3.953125 -7.640625 3.40625 -7.414062 3 -6.96875 C 2.59375 -6.519531 2.351562 -5.898438 2.28125 -5.109375 L 6.75 -5.109375 C 6.75 -5.921875 6.566406 -6.546875 6.203125 -6.984375 C 5.835938 -7.421875 5.316406 -7.640625 4.640625 -7.640625 Z M 4.640625 -7.640625 "/></g></g></g></svg>