<svg xmlns="http://www.w3.org/2000/svg" xmlns:xlink="http://www.w3.org/1999/xlink" width="500" zoomAndPan="magnify" viewBox="0 0 375 374.999991" height="500" preserveAspectRatio="xMidYMid meet" version="1.2"><defs><clipPath id="05f2e03fd1"><path d="M 375 187.5 C 375 190.570312 374.925781 193.636719 374.773438 196.699219 C 374.625 199.765625 374.398438 202.824219 374.097656 205.878906 C 373.796875 208.933594 373.421875 211.976562 372.96875 215.011719 C 372.519531 218.046875 371.996094 221.070312 371.398438 224.078125 C 370.796875 227.089844 370.125 230.082031 369.378906 233.058594 C 368.636719 236.035156 367.816406 238.992188 366.925781 241.929688 C 366.035156 244.863281 365.074219 247.777344 364.039062 250.667969 C 363.003906 253.554688 361.902344 256.417969 360.726562 259.253906 C 359.554688 262.089844 358.308594 264.890625 356.996094 267.667969 C 355.6875 270.441406 354.308594 273.179688 352.859375 275.886719 C 351.414062 278.59375 349.902344 281.261719 348.324219 283.894531 C 346.746094 286.527344 345.105469 289.117188 343.402344 291.667969 C 341.695312 294.222656 339.929688 296.730469 338.101562 299.195312 C 336.273438 301.660156 334.386719 304.078125 332.4375 306.449219 C 330.492188 308.820312 328.488281 311.144531 326.429688 313.417969 C 324.367188 315.691406 322.253906 317.914062 320.082031 320.082031 C 317.914062 322.253906 315.691406 324.367188 313.417969 326.429688 C 311.144531 328.488281 308.820312 330.492188 306.449219 332.4375 C 304.078125 334.386719 301.660156 336.273438 299.195312 338.101562 C 296.730469 339.929688 294.222656 341.695312 291.667969 343.402344 C 289.117188 345.105469 286.527344 346.746094 283.894531 348.324219 C 281.261719 349.902344 278.59375 351.414062 275.886719 352.859375 C 273.179688 354.308594 270.441406 355.6875 267.667969 356.996094 C 264.894531 358.308594 262.089844 359.554688 259.253906 360.726562 C 256.417969 361.902344 253.554688 363.003906 250.667969 364.039062 C 247.777344 365.074219 244.863281 366.035156 241.929688 366.925781 C 238.992188 367.816406 236.035156 368.636719 233.058594 369.378906 C 230.082031 370.125 227.089844 370.796875 224.078125 371.398438 C 221.070312 371.996094 218.046875 372.519531 215.011719 372.96875 C 211.976562 373.421875 208.933594 373.796875 205.878906 374.097656 C 202.824219 374.398438 199.765625 374.625 196.699219 374.773438 C 193.636719 374.925781 190.570312 375 187.5 375 C 184.429688 375 181.363281 374.925781 178.300781 374.773438 C 175.234375 374.625 172.175781 374.398438 169.121094 374.097656 C 166.066406 373.796875 163.023438 373.421875 159.988281 372.96875 C 156.953125 372.519531 153.929688 371.996094 150.921875 371.398438 C 147.910156 370.796875 144.917969 370.125 141.941406 369.378906 C 138.964844 368.636719 136.007812 367.816406 133.070312 366.925781 C 130.136719 366.035156 127.222656 365.074219 124.332031 364.039062 C 121.445312 363.003906 118.582031 361.902344 115.746094 360.726562 C 112.910156 359.554688 110.105469 358.308594 107.332031 356.996094 C 104.558594 355.6875 101.820312 354.308594 99.113281 352.859375 C 96.40625 351.414062 93.738281 349.902344 91.105469 348.324219 C 88.472656 346.746094 85.882812 345.105469 83.332031 343.402344 C 80.777344 341.695312 78.269531 339.929688 75.804688 338.101562 C 73.339844 336.273438 70.921875 334.386719 68.550781 332.4375 C 66.179688 330.492188 63.855469 328.488281 61.582031 326.429688 C 59.308594 324.367188 57.085938 322.253906 54.917969 320.082031 C 52.746094 317.914062 50.632812 315.691406 48.570312 313.417969 C 46.511719 311.144531 44.507812 308.820312 42.558594 306.449219 C 40.613281 304.078125 38.726562 301.660156 36.898438 299.195312 C 35.070312 296.730469 33.304688 294.222656 31.597656 291.667969 C 29.894531 289.117188 28.253906 286.527344 26.675781 283.894531 C 25.097656 281.261719 23.585938 278.59375 22.140625 275.886719 C 20.691406 273.179688 19.3125 270.441406 18.003906 267.667969 C 16.691406 264.890625 15.445312 262.089844 14.273438 259.253906 C 13.097656 256.417969 11.996094 253.554688 10.960938 250.667969 C 9.925781 247.777344 8.964844 244.863281 8.074219 241.929688 C 7.183594 238.992188 6.363281 236.035156 5.621094 233.058594 C 4.875 230.082031 4.203125 227.089844 3.601562 224.078125 C 3.003906 221.070312 2.480469 218.046875 2.03125 215.011719 C 1.578125 211.976562 1.203125 208.933594 0.902344 205.878906 C 0.601562 202.824219 0.375 199.765625 0.226562 196.699219 C 0.0742188 193.636719 0 190.570312 0 187.5 C 0 184.429688 0.0742188 181.363281 0.226562 178.300781 C 0.375 175.234375 0.601562 172.175781 0.902344 169.121094 C 1.203125 166.066406 1.578125 163.023438 2.03125 159.988281 C 2.480469 156.953125 3.003906 153.929688 3.601562 150.921875 C 4.203125 147.910156 4.875 144.917969 5.621094 141.941406 C 6.363281 138.964844 7.183594 136.007812 8.074219 133.070312 C 8.964844 130.136719 9.925781 127.222656 10.960938 124.332031 C 11.996094 121.445312 13.097656 118.582031 14.273438 115.746094 C 15.445312 112.910156 16.691406 110.105469 18.003906 107.332031 C 19.3125 104.558594 20.691406 101.820312 22.140625 99.113281 C 23.585938 96.40625 25.097656 93.738281 26.675781 91.105469 C 28.253906 88.472656 29.894531 85.882812 31.597656 83.332031 C 33.304688 80.777344 35.070312 78.269531 36.898438 75.804688 C 38.726562 73.339844 40.613281 70.921875 42.558594 68.550781 C 44.507812 66.179688 46.511719 63.855469 48.570312 61.582031 C 50.632812 59.308594 52.746094 57.085938 54.917969 54.917969 C 57.085938 52.746094 59.308594 50.632812 61.582031 48.570312 C 63.855469 46.511719 66.179688 44.507812 68.550781 42.558594 C 70.921875 40.613281 73.339844 38.726562 75.804688 36.898438 C 78.269531 35.070312 80.777344 33.304688 83.332031 31.597656 C 85.882812 29.894531 88.472656 28.253906 91.105469 26.675781 C 93.738281 25.097656 96.40625 23.585938 99.113281 22.140625 C 101.820312 20.691406 104.558594 19.3125 107.332031 18.003906 C 110.105469 16.691406 112.910156 15.445312 115.746094 14.273438 C 118.582031 13.097656 121.445312 11.996094 124.332031 10.960938 C 127.222656 9.925781 130.136719 8.964844 133.070312 8.074219 C 136.007812 7.183594 138.964844 6.363281 141.941406 5.617188 C 144.917969 4.875 147.910156 4.203125 150.921875 3.601562 C 153.929688 3.003906 156.953125 2.480469 159.988281 2.03125 C 163.023438 1.578125 166.066406 1.203125 169.121094 0.902344 C 172.175781 0.601562 175.234375 0.375 178.300781 0.226562 C 181.363281 0.0742188 184.429688 0 187.5 0 C 190.570312 0 193.636719 0.0742188 196.699219 0.226562 C 199.765625 0.375 202.824219 0.601562 205.878906 0.902344 C 208.933594 1.203125 211.976562 1.578125 215.011719 2.03125 C 218.046875 2.480469 221.070312 3.003906 224.078125 3.601562 C 227.089844 4.203125 230.082031 4.875 233.058594 5.617188 C 236.035156 6.363281 238.992188 7.183594 241.929688 8.074219 C 244.863281 8.964844 247.777344 9.925781 250.667969 10.960938 C 253.554688 11.996094 256.417969 13.097656 259.253906 14.273438 C 262.089844 15.445312 264.894531 16.691406 267.667969 18.003906 C 270.441406 19.3125 273.179688 20.691406 275.886719 22.140625 C 278.59375 23.585938 281.261719 25.097656 283.894531 26.675781 C 286.527344 28.253906 289.117188 29.894531 291.667969 31.597656 C 294.222656 33.304688 296.730469 35.070312 299.195312 36.898438 C 301.660156 38.726562 304.078125 40.613281 306.449219 42.558594 C 308.820312 44.507812 311.144531 46.511719 313.417969 48.570312 C 315.691406 50.632812 317.914062 52.746094 320.082031 54.917969 C 322.253906 57.085938 324.367188 59.308594 326.429688 61.582031 C 328.488281 63.855469 330.492188 66.179688 332.4375 68.550781 C 334.386719 70.921875 336.273438 73.339844 338.101562 75.804688 C 339.929688 78.269531 341.695312 80.777344 343.402344 83.332031 C 345.105469 85.882812 346.746094 88.472656 348.324219 91.105469 C 349.902344 93.738281 351.414062 96.40625 352.859375 99.113281 C 354.308594 101.820312 355.6875 104.558594 356.996094 107.332031 C 358.308594 110.105469 359.554688 112.910156 360.726562 115.746094 C 361.902344 118.582031 363.003906 121.445312 364.039062 124.332031 C 365.074219 127.222656 366.035156 130.136719 366.925781 133.070312 C 367.816406 136.007812 368.636719 138.964844 369.378906 141.941406 C 370.125 144.917969 370.796875 147.910156 371.398438 150.921875 C 371.996094 153.929688 372.519531 156.953125 372.96875 159.988281 C 373.421875 163.023438 373.796875 166.066406 374.097656 169.121094 C 374.398438 172.175781 374.625 175.234375 374.773438 178.300781 C 374.925781 181.363281 375 184.429688 375 187.5 Z M 375 187.5 "/></clipPath><linearGradient x1="0.0499028" gradientTransform="matrix(1.221498,0,0,1.221498,0.0000045,-0)" y1="307.049891" x2="307.050596" gradientUnits="userSpaceOnUse" y2="0.0506091" id="e02cfd03d6"><stop style="stop-color:#fec053;stop-opacity:1;" offset="0"/><stop style="stop-color:#fec053;stop-opacity:1;" offset="0.125"/><stop style="stop-color:#fec053;stop-opacity:1;" offset="0.140625"/><stop style="stop-color:#fec053;stop-opacity:1;" offset="0.144531"/><stop style="stop-color:#febf53;stop-opacity:1;" offset="0.148438"/><stop style="stop-color:#febd52;stop-opacity:1;" offset="0.152344"/><stop style="stop-color:#febb52;stop-opacity:1;" offset="0.15625"/><stop style="stop-color:#fdb952;stop-opacity:1;" offset="0.160156"/><stop style="stop-color:#fdb852;stop-opacity:1;" offset="0.164062"/><stop style="stop-color:#fdb652;stop-opacity:1;" offset="0.167969"/><stop style="stop-color:#fdb451;stop-opacity:1;" offset="0.171875"/><stop style="stop-color:#fdb251;stop-opacity:1;" offset="0.175781"/><stop style="stop-color:#fdb051;stop-opacity:1;" offset="0.179688"/><stop style="stop-color:#fdae51;stop-opacity:1;" offset="0.183594"/><stop style="stop-color:#fcac50;stop-opacity:1;" offset="0.1875"/><stop style="stop-color:#fcaa50;stop-opacity:1;" offset="0.191406"/><stop style="stop-color:#fca950;stop-opacity:1;" offset="0.195312"/><stop style="stop-color:#fca750;stop-opacity:1;" offset="0.199219"/><stop style="stop-color:#fca54f;stop-opacity:1;" offset="0.203125"/><stop style="stop-color:#fca34f;stop-opacity:1;" offset="0.207031"/><stop style="stop-color:#fca14f;stop-opacity:1;" offset="0.210938"/><stop style="stop-color:#fc9f4f;stop-opacity:1;" offset="0.214844"/><stop style="stop-color:#fb9d4e;stop-opacity:1;" offset="0.21875"/><stop style="stop-color:#fb9b4e;stop-opacity:1;" offset="0.222656"/><stop style="stop-color:#fb9a4e;stop-opacity:1;" offset="0.226562"/><stop style="stop-color:#fb984e;stop-opacity:1;" offset="0.230469"/><stop style="stop-color:#fb964d;stop-opacity:1;" offset="0.234375"/><stop style="stop-color:#fb944d;stop-opacity:1;" offset="0.238281"/><stop style="stop-color:#fb924d;stop-opacity:1;" offset="0.242188"/><stop style="stop-color:#fa904d;stop-opacity:1;" offset="0.246094"/><stop style="stop-color:#fa8e4c;stop-opacity:1;" offset="0.25"/><stop style="stop-color:#fa8c4c;stop-opacity:1;" offset="0.253906"/><stop style="stop-color:#fa8b4c;stop-opacity:1;" offset="0.257813"/><stop style="stop-color:#fa894c;stop-opacity:1;" offset="0.261719"/><stop style="stop-color:#fa874b;stop-opacity:1;" offset="0.265625"/><stop style="stop-color:#fa854b;stop-opacity:1;" offset="0.269531"/><stop style="stop-color:#f9834b;stop-opacity:1;" offset="0.273438"/><stop style="stop-color:#f9814b;stop-opacity:1;" offset="0.277344"/><stop style="stop-color:#f97f4a;stop-opacity:1;" offset="0.28125"/><stop style="stop-color:#f97d4a;stop-opacity:1;" offset="0.285156"/><stop style="stop-color:#f97c4a;stop-opacity:1;" offset="0.289062"/><stop style="stop-color:#f97a4a;stop-opacity:1;" offset="0.292969"/><stop style="stop-color:#f97849;stop-opacity:1;" offset="0.296875"/><stop style="stop-color:#f87649;stop-opacity:1;" offset="0.300781"/><stop style="stop-color:#f87449;stop-opacity:1;" offset="0.304688"/><stop style="stop-color:#f87249;stop-opacity:1;" offset="0.308594"/><stop style="stop-color:#f87048;stop-opacity:1;" offset="0.3125"/><stop style="stop-color:#f86e48;stop-opacity:1;" offset="0.316406"/><stop style="stop-color:#f86d48;stop-opacity:1;" offset="0.320313"/><stop style="stop-color:#f86b48;stop-opacity:1;" offset="0.324219"/><stop style="stop-color:#f76947;stop-opacity:1;" offset="0.328125"/><stop style="stop-color:#f76747;stop-opacity:1;" offset="0.332031"/><stop style="stop-color:#f76547;stop-opacity:1;" offset="0.335938"/><stop style="stop-color:#f76347;stop-opacity:1;" offset="0.339844"/><stop style="stop-color:#f76147;stop-opacity:1;" offset="0.34375"/><stop style="stop-color:#f75f46;stop-opacity:1;" offset="0.347656"/><stop style="stop-color:#f75e46;stop-opacity:1;" offset="0.351563"/><stop style="stop-color:#f65c46;stop-opacity:1;" offset="0.355469"/><stop style="stop-color:#f65a46;stop-opacity:1;" offset="0.359375"/><stop style="stop-color:#f65845;stop-opacity:1;" offset="0.363281"/><stop style="stop-color:#f65645;stop-opacity:1;" offset="0.367188"/><stop style="stop-color:#f65445;stop-opacity:1;" offset="0.371094"/><stop style="stop-color:#f65245;stop-opacity:1;" offset="0.375"/><stop style="stop-color:#f65044;stop-opacity:1;" offset="0.378906"/><stop style="stop-color:#f54e44;stop-opacity:1;" offset="0.382813"/><stop style="stop-color:#f54d44;stop-opacity:1;" offset="0.386719"/><stop style="stop-color:#f54b44;stop-opacity:1;" offset="0.390625"/><stop style="stop-color:#f54943;stop-opacity:1;" offset="0.394531"/><stop style="stop-color:#f54743;stop-opacity:1;" offset="0.398438"/><stop style="stop-color:#f54543;stop-opacity:1;" offset="0.402344"/><stop style="stop-color:#f54343;stop-opacity:1;" offset="0.40625"/><stop style="stop-color:#f44142;stop-opacity:1;" offset="0.410156"/><stop style="stop-color:#f43f42;stop-opacity:1;" offset="0.414063"/><stop style="stop-color:#f43e42;stop-opacity:1;" offset="0.417969"/><stop style="stop-color:#f43c42;stop-opacity:1;" offset="0.421875"/><stop style="stop-color:#f43a41;stop-opacity:1;" offset="0.425781"/><stop style="stop-color:#f43841;stop-opacity:1;" offset="0.429688"/><stop style="stop-color:#f43641;stop-opacity:1;" offset="0.433594"/><stop style="stop-color:#f43441;stop-opacity:1;" offset="0.4375"/><stop style="stop-color:#f33240;stop-opacity:1;" offset="0.441406"/><stop style="stop-color:#f33040;stop-opacity:1;" offset="0.445313"/><stop style="stop-color:#f32f40;stop-opacity:1;" offset="0.449219"/><stop style="stop-color:#f32d40;stop-opacity:1;" offset="0.453125"/><stop style="stop-color:#f32b3f;stop-opacity:1;" offset="0.457031"/><stop style="stop-color:#f3293f;stop-opacity:1;" offset="0.460938"/><stop style="stop-color:#f3273f;stop-opacity:1;" offset="0.464844"/><stop style="stop-color:#f2253f;stop-opacity:1;" offset="0.46875"/><stop style="stop-color:#f2233e;stop-opacity:1;" offset="0.472656"/><stop style="stop-color:#f2213e;stop-opacity:1;" offset="0.476563"/><stop style="stop-color:#f1213f;stop-opacity:1;" offset="0.480469"/><stop style="stop-color:#f02041;stop-opacity:1;" offset="0.484375"/><stop style="stop-color:#ef2043;stop-opacity:1;" offset="0.488281"/><stop style="stop-color:#ee2046;stop-opacity:1;" offset="0.492188"/><stop style="stop-color:#ec2048;stop-opacity:1;" offset="0.496094"/><stop style="stop-color:#eb204a;stop-opacity:1;" offset="0.5"/><stop style="stop-color:#ea204d;stop-opacity:1;" offset="0.503906"/><stop style="stop-color:#e8204f;stop-opacity:1;" offset="0.507813"/><stop style="stop-color:#e72052;stop-opacity:1;" offset="0.511719"/><stop style="stop-color:#e62054;stop-opacity:1;" offset="0.515625"/><stop style="stop-color:#e42057;stop-opacity:1;" offset="0.519531"/><stop style="stop-color:#e32059;stop-opacity:1;" offset="0.523438"/><stop style="stop-color:#e2205b;stop-opacity:1;" offset="0.527344"/><stop style="stop-color:#e0205e;stop-opacity:1;" offset="0.53125"/><stop style="stop-color:#df2060;stop-opacity:1;" offset="0.535156"/><stop style="stop-color:#de2063;stop-opacity:1;" offset="0.539063"/><stop style="stop-color:#dc2065;stop-opacity:1;" offset="0.542969"/><stop style="stop-color:#db2068;stop-opacity:1;" offset="0.546875"/><stop style="stop-color:#d9206a;stop-opacity:1;" offset="0.550781"/><stop style="stop-color:#d8206d;stop-opacity:1;" offset="0.554688"/><stop style="stop-color:#d7206f;stop-opacity:1;" offset="0.558594"/><stop style="stop-color:#d52071;stop-opacity:1;" offset="0.5625"/><stop style="stop-color:#d41f74;stop-opacity:1;" offset="0.566406"/><stop style="stop-color:#d31f76;stop-opacity:1;" offset="0.570312"/><stop style="stop-color:#d11f79;stop-opacity:1;" offset="0.574219"/><stop style="stop-color:#d01f7b;stop-opacity:1;" offset="0.578125"/><stop style="stop-color:#cf1f7e;stop-opacity:1;" offset="0.582031"/><stop style="stop-color:#cd1f80;stop-opacity:1;" offset="0.585938"/><stop style="stop-color:#cc1f82;stop-opacity:1;" offset="0.589844"/><stop style="stop-color:#cb1f85;stop-opacity:1;" offset="0.59375"/><stop style="stop-color:#c91f87;stop-opacity:1;" offset="0.597656"/><stop style="stop-color:#c81f8a;stop-opacity:1;" offset="0.601563"/><stop style="stop-color:#c71f8c;stop-opacity:1;" offset="0.605469"/><stop style="stop-color:#c51f8f;stop-opacity:1;" offset="0.609375"/><stop style="stop-color:#c41f91;stop-opacity:1;" offset="0.613281"/><stop style="stop-color:#c31f93;stop-opacity:1;" offset="0.617188"/><stop style="stop-color:#c11f96;stop-opacity:1;" offset="0.621094"/><stop style="stop-color:#c01f98;stop-opacity:1;" offset="0.625"/><stop style="stop-color:#be1f9b;stop-opacity:1;" offset="0.628906"/><stop style="stop-color:#bd1f9d;stop-opacity:1;" offset="0.632813"/><stop style="stop-color:#bc1fa0;stop-opacity:1;" offset="0.636719"/><stop style="stop-color:#ba1fa2;stop-opacity:1;" offset="0.640625"/><stop style="stop-color:#b91fa4;stop-opacity:1;" offset="0.644531"/><stop style="stop-color:#b81fa7;stop-opacity:1;" offset="0.648438"/><stop style="stop-color:#b620a8;stop-opacity:1;" offset="0.652344"/><stop style="stop-color:#b421a9;stop-opacity:1;" offset="0.65625"/><stop style="stop-color:#b222aa;stop-opacity:1;" offset="0.660156"/><stop style="stop-color:#b023ab;stop-opacity:1;" offset="0.664063"/><stop style="stop-color:#ae23ac;stop-opacity:1;" offset="0.667969"/><stop style="stop-color:#ac24ad;stop-opacity:1;" offset="0.671875"/><stop style="stop-color:#aa25ae;stop-opacity:1;" offset="0.675781"/><stop style="stop-color:#a926af;stop-opacity:1;" offset="0.679688"/><stop style="stop-color:#a727b0;stop-opacity:1;" offset="0.683594"/><stop style="stop-color:#a528b0;stop-opacity:1;" offset="0.6875"/><stop style="stop-color:#a329b1;stop-opacity:1;" offset="0.691406"/><stop style="stop-color:#a12ab2;stop-opacity:1;" offset="0.695312"/><stop style="stop-color:#9f2bb3;stop-opacity:1;" offset="0.699219"/><stop style="stop-color:#9d2cb4;stop-opacity:1;" offset="0.703125"/><stop style="stop-color:#9b2db5;stop-opacity:1;" offset="0.707031"/><stop style="stop-color:#992eb6;stop-opacity:1;" offset="0.710938"/><stop style="stop-color:#972fb7;stop-opacity:1;" offset="0.714844"/><stop style="stop-color:#9530b8;stop-opacity:1;" offset="0.71875"/><stop style="stop-color:#9331b8;stop-opacity:1;" offset="0.722656"/><stop style="stop-color:#9132b9;stop-opacity:1;" offset="0.726562"/><stop style="stop-color:#8f33ba;stop-opacity:1;" offset="0.730469"/><stop style="stop-color:#8e34bb;stop-opacity:1;" offset="0.734375"/><stop style="stop-color:#8c35bc;stop-opacity:1;" offset="0.738281"/><stop style="stop-color:#8a36bd;stop-opacity:1;" offset="0.742188"/><stop style="stop-color:#8837be;stop-opacity:1;" offset="0.746094"/><stop style="stop-color:#8638bf;stop-opacity:1;" offset="0.75"/><stop style="stop-color:#8439bf;stop-opacity:1;" offset="0.753906"/><stop style="stop-color:#823ac0;stop-opacity:1;" offset="0.757812"/><stop style="stop-color:#803bc1;stop-opacity:1;" offset="0.761719"/><stop style="stop-color:#7e3cc2;stop-opacity:1;" offset="0.765625"/><stop style="stop-color:#7c3cc3;stop-opacity:1;" offset="0.769531"/><stop style="stop-color:#7a3dc4;stop-opacity:1;" offset="0.773438"/><stop style="stop-color:#783ec5;stop-opacity:1;" offset="0.777344"/><stop style="stop-color:#763fc6;stop-opacity:1;" offset="0.78125"/><stop style="stop-color:#7440c7;stop-opacity:1;" offset="0.785156"/><stop style="stop-color:#7341c7;stop-opacity:1;" offset="0.789063"/><stop style="stop-color:#7142c8;stop-opacity:1;" offset="0.792969"/><stop style="stop-color:#6f43c9;stop-opacity:1;" offset="0.796875"/><stop style="stop-color:#6d44ca;stop-opacity:1;" offset="0.800781"/><stop style="stop-color:#6b45cb;stop-opacity:1;" offset="0.804688"/><stop style="stop-color:#6946cc;stop-opacity:1;" offset="0.808594"/><stop style="stop-color:#6747cd;stop-opacity:1;" offset="0.8125"/><stop style="stop-color:#6548ce;stop-opacity:1;" offset="0.816406"/><stop style="stop-color:#6349cf;stop-opacity:1;" offset="0.820312"/><stop style="stop-color:#614acf;stop-opacity:1;" offset="0.824219"/><stop style="stop-color:#5f4bd0;stop-opacity:1;" offset="0.828125"/><stop style="stop-color:#5d4cd1;stop-opacity:1;" offset="0.832031"/><stop style="stop-color:#5b4dd2;stop-opacity:1;" offset="0.835938"/><stop style="stop-color:#594ed3;stop-opacity:1;" offset="0.839844"/><stop style="stop-color:#574fd4;stop-opacity:1;" offset="0.84375"/><stop style="stop-color:#5650d5;stop-opacity:1;" offset="0.847656"/><stop style="stop-color:#5451d6;stop-opacity:1;" offset="0.851562"/><stop style="stop-color:#5351d6;stop-opacity:1;" offset="0.859375"/><stop style="stop-color:#5351d6;stop-opacity:1;" offset="0.875"/><stop style="stop-color:#5351d6;stop-opacity:1;" offset="1"/></linearGradient></defs><g id="43ff15eb18"><rect x="0" width="375" y="0" height="374.999991" style="fill:#ffffff;fill-opacity:1;stroke:none;"/><rect x="0" width="375" y="0" height="374.999991" style="fill:#010101;fill-opacity:1;stroke:none;"/><g clip-rule="nonzero" clip-path="url(#05f2e03fd1)"><rect x="0" width="375" y="0" height="374.999991" style="fill:url(#e02cfd03d6);stroke:none;"/></g><path style=" stroke:none;fill-rule:nonzero;fill:#ffffff;fill-opacity:1;" d="M 237.808594 300.65625 L 137.847656 300.65625 C 103.191406 300.65625 74.996094 272.464844 74.996094 237.808594 L 74.996094 137.847656 C 74.996094 103.191406 103.191406 74.996094 137.847656 74.996094 L 237.808594 74.996094 C 272.464844 74.996094 300.65625 103.191406 300.65625 137.847656 L 300.65625 237.808594 C 300.65625 272.464844 272.464844 300.65625 237.808594 300.65625 Z M 137.847656 90.273438 C 111.617188 90.273438 90.273438 111.617188 90.273438 137.847656 L 90.273438 237.808594 C 90.273438 264.039062 111.617188 285.378906 137.847656 285.378906 L 237.808594 285.378906 C 264.039062 285.378906 285.378906 264.039062 285.378906 237.808594 L 285.378906 137.847656 C 285.378906 111.617188 264.039062 90.273438 237.808594 90.273438 Z M 137.847656 90.273438 "/><path style=" stroke:none;fill-rule:nonzero;fill:#ffffff;fill-opacity:1;" d="M 187.832031 243.722656 C 157.015625 243.722656 131.941406 218.648438 131.941406 187.832031 C 131.941406 157.015625 157.015625 131.941406 187.832031 131.941406 C 218.648438 131.941406 243.722656 157.015625 243.722656 187.832031 C 243.722656 218.648438 218.648438 243.722656 187.832031 243.722656 Z M 187.832031 147.214844 C 165.4375 147.214844 147.21875 165.429688 147.21875 187.828125 C 147.21875 210.222656 165.441406 228.441406 187.832031 228.441406 C 210.222656 228.441406 228.445312 210.222656 228.445312 187.828125 C 228.445312 165.429688 210.226562 147.214844 187.832031 147.214844 Z M 187.832031 147.214844 "/><g style="fill:#000000;fill-opacity:1;"><g transform="translate(-5.046123, 380.624975)"><path style="stroke:none" d="M 5 0.15625 C 3.726562 0.15625 2.726562 -0.226562 2 -1 C 1.269531 -1.769531 0.90625 -2.84375 0.90625 -4.21875 C 0.90625 -5.59375 1.242188 -6.6875 1.921875 -7.5 C 2.597656 -8.3125 3.507812 -8.71875 4.65625 -8.71875 C 5.726562 -8.71875 6.578125 -8.363281 7.203125 -7.65625 C 7.828125 -6.957031 8.140625 -6.03125 8.140625 -4.875 L 8.140625 -4.046875 L 2.25 -4.046875 C 2.269531 -3.046875 2.519531 -2.285156 3 -1.765625 C 3.488281 -1.242188 4.171875 -0.984375 5.046875 -0.984375 C 5.960938 -0.984375 6.875 -1.175781 7.78125 -1.5625 L 7.78125 -0.40625 C 7.320312 -0.207031 6.882812 -0.0664062 6.46875 0.015625 C 6.0625 0.109375 5.570312 0.15625 5 0.15625 Z M 4.640625 -7.640625 C 3.953125 -7.640625 3.40625 -7.414062 3 -6.96875 C 2.59375 -6.519531 2.351562 -5.898438 2.28125 -5.109375 L 6.75 -5.109375 C 6.75 -5.921875 6.566406 -6.546875 6.203125 -6.984375 C 5.835938 -7.421875 5.316406 -7.640625 4.640625 -7.640625 Z M 4.640625 -7.640625 "/></g></g></g></svg>