<svg xmlns="http://www.w3.org/2000/svg" xmlns:xlink="http://www.w3.org/1999/xlink" width="500" zoomAndPan="magnify" viewBox="0 0 375 374.999991" height="500" preserveAspectRatio="xMidYMid meet" version="1.2"><defs><clipPath id="7f1abfcd6a"><path d="M 0 7.347656 L 375 7.347656 L 375 375 L 0 375 Z M 0 7.347656 "/></clipPath></defs><g id="ca594d6dcb"><rect x="0" width="375" y="0" height="374.999991" style="fill:#ffffff;fill-opacity:1;stroke:none;"/><rect x="0" width="375" y="0" height="374.999991" style="fill:#010101;fill-opacity:1;stroke:none;"/><g clip-rule="nonzero" clip-path="url(#7f1abfcd6a)"><path style=" stroke:none;fill-rule:nonzero;fill:#02aeed;fill-opacity:1;" d="M 64.976562 7.347656 L 307.867188 7.347656 C 326.417969 7.347656 343.199219 14.855469 355.34375 27 C 367.488281 39.144531 374.996094 55.925781 374.996094 74.253906 L 374.996094 317.144531 C 374.996094 335.691406 367.488281 352.472656 355.34375 364.617188 C 343.199219 376.761719 326.417969 384.269531 307.867188 384.269531 L 64.976562 384.269531 C 46.652344 384.269531 29.867188 376.761719 17.722656 364.617188 C 5.578125 352.472656 -1.925781 335.691406 -1.925781 317.144531 L -1.925781 74.253906 C -1.925781 55.925781 5.578125 39.144531 17.722656 27 C 29.867188 14.855469 46.652344 7.347656 64.976562 7.347656 Z M 307.867188 27 L 64.976562 27 C 51.949219 27 40.246094 32.300781 31.636719 40.910156 C 23.023438 49.523438 17.722656 61.226562 17.722656 74.253906 L 17.722656 317.144531 C 17.722656 330.171875 23.023438 342.09375 31.636719 350.707031 C 40.246094 359.097656 51.949219 364.617188 64.976562 364.617188 L 307.867188 364.617188 C 320.894531 364.617188 332.820312 359.097656 341.429688 350.707031 C 349.820312 342.09375 355.34375 330.171875 355.34375 317.144531 L 355.34375 74.253906 C 355.34375 61.226562 349.820312 49.523438 341.429688 40.910156 C 332.820312 32.300781 320.894531 27 307.867188 27 Z M 307.867188 27 "/></g><path style=" stroke:none;fill-rule:nonzero;fill:#02aeed;fill-opacity:1;" d="M 66.964844 138.066406 L 103.398438 138.066406 C 107.59375 138.066406 111.347656 139.613281 113.996094 142.261719 C 116.867188 144.910156 118.855469 148.664062 118.855469 153.082031 L 118.855469 322 C 118.855469 326.195312 116.867188 330.171875 113.996094 332.820312 C 111.347656 335.46875 107.59375 337.015625 103.398438 337.015625 L 66.964844 337.015625 C 62.769531 337.015625 59.015625 335.46875 56.367188 332.820312 C 53.273438 330.171875 51.507812 326.195312 51.507812 322 L 51.507812 153.082031 C 51.507812 148.664062 53.273438 144.910156 56.367188 142.261719 C 59.015625 139.613281 62.769531 138.066406 66.964844 138.066406 Z M 99.203125 157.71875 L 71.160156 157.71875 L 71.160156 317.363281 L 99.203125 317.363281 Z M 99.203125 157.71875 "/><path style=" stroke:none;fill-rule:nonzero;fill:#02aeed;fill-opacity:1;" d="M 159.042969 137.625 L 195.476562 137.625 C 199.671875 137.625 203.425781 139.390625 206.074219 141.820312 C 209.167969 144.691406 210.933594 148.445312 210.933594 152.640625 L 210.933594 153.964844 C 218.882812 148.664062 227.933594 144.691406 237.210938 142.484375 C 250.015625 139.390625 263.484375 139.171875 275.851562 142.042969 C 288.4375 145.132812 300.140625 151.757812 308.308594 162.136719 C 316.480469 172.070312 321.335938 185.539062 321.335938 202.320312 L 321.335938 321.558594 C 321.335938 325.753906 319.570312 329.507812 316.699219 332.378906 C 314.050781 334.808594 310.296875 336.574219 306.101562 336.574219 L 269.449219 336.574219 C 265.472656 336.574219 261.71875 334.808594 258.847656 332.378906 C 255.976562 329.507812 254.210938 325.753906 254.210938 321.558594 L 254.210938 227.273438 C 254.210938 218.441406 249.132812 212.921875 242.730469 210.492188 C 239.859375 209.386719 236.546875 208.945312 233.457031 208.945312 C 230.144531 208.945312 226.832031 209.609375 223.738281 210.714844 C 216.453125 213.363281 210.933594 218.882812 210.933594 227.273438 L 210.933594 322 C 210.933594 326.195312 209.167969 330.171875 206.074219 332.820312 C 203.425781 335.46875 199.671875 337.015625 195.476562 337.015625 L 159.042969 337.015625 C 154.847656 337.015625 151.09375 335.46875 148.445312 332.820312 C 145.574219 330.171875 143.585938 326.195312 143.585938 322 L 143.585938 152.640625 C 143.585938 148.445312 145.574219 144.691406 148.445312 141.820312 C 151.09375 139.390625 154.847656 137.625 159.042969 137.625 Z M 191.28125 157.277344 L 163.238281 157.277344 L 163.238281 317.363281 L 191.28125 317.363281 L 191.28125 227.273438 C 191.28125 209.386719 202.542969 197.464844 217.117188 192.164062 C 222.195312 190.398438 227.714844 189.515625 233.234375 189.292969 C 238.753906 189.292969 244.273438 190.175781 249.574219 192.164062 C 263.265625 197.242188 273.863281 208.726562 273.863281 227.273438 L 273.863281 316.921875 L 301.683594 316.921875 L 301.683594 202.320312 C 301.683594 190.398438 298.375 181.125 293.074219 174.5 C 287.554688 167.65625 279.824219 163.238281 271.214844 161.03125 C 261.941406 158.824219 251.78125 159.042969 242.066406 161.472656 C 228.820312 164.785156 216.894531 171.851562 209.167969 182.449219 C 207.398438 185.097656 204.53125 186.644531 200.996094 186.644531 C 195.695312 186.644531 191.28125 182.230469 191.28125 176.929688 Z M 191.28125 157.277344 "/><path style=" stroke:none;fill-rule:nonzero;fill:#02aeed;fill-opacity:1;" d="M 85.070312 54.378906 C 95.007812 54.378906 104.0625 58.574219 110.464844 64.980469 C 116.867188 71.382812 120.84375 80.433594 120.84375 90.152344 C 120.84375 100.085938 116.867188 108.917969 110.464844 115.542969 C 104.0625 121.949219 95.007812 125.921875 85.070312 125.921875 C 75.355469 125.921875 66.300781 121.949219 59.898438 115.542969 C 53.496094 108.917969 49.519531 100.085938 49.519531 90.152344 C 49.519531 80.433594 53.496094 71.382812 59.898438 64.980469 C 66.300781 58.574219 75.355469 54.378906 85.070312 54.378906 Z M 96.554688 78.890625 C 93.683594 76.019531 89.707031 74.253906 85.070312 74.253906 C 80.65625 74.253906 76.679688 76.019531 73.808594 78.890625 C 70.941406 81.761719 69.171875 85.734375 69.171875 90.152344 C 69.171875 94.566406 70.941406 98.761719 73.808594 101.632812 C 76.679688 104.503906 80.65625 106.269531 85.070312 106.269531 C 89.707031 106.269531 93.683594 104.503906 96.554688 101.632812 C 99.425781 98.761719 101.191406 94.566406 101.191406 90.152344 C 101.191406 85.734375 99.425781 81.761719 96.554688 78.890625 Z M 96.554688 78.890625 "/><g style="fill:#000000;fill-opacity:1;"><g transform="translate(-5.046123, 380.624975)"><path style="stroke:none" d="M 5 0.15625 C 3.726562 0.15625 2.726562 -0.226562 2 -1 C 1.269531 -1.769531 0.90625 -2.84375 0.90625 -4.21875 C 0.90625 -5.59375 1.242188 -6.6875 1.921875 -7.5 C 2.597656 -8.3125 3.507812 -8.71875 4.65625 -8.71875 C 5.726562 -8.71875 6.578125 -8.363281 7.203125 -7.65625 C 7.828125 -6.957031 8.140625 -6.03125 8.140625 -4.875 L 8.140625 -4.046875 L 2.25 -4.046875 C 2.269531 -3.046875 2.519531 -2.285156 3 -1.765625 C 3.488281 -1.242188 4.171875 -0.984375 5.046875 -0.984375 C 5.960938 -0.984375 6.875 -1.175781 7.78125 -1.5625 L 7.78125 -0.40625 C 7.320312 -0.207031 6.882812 -0.0664062 6.46875 0.015625 C 6.0625 0.109375 5.570312 0.15625 5 0.15625 Z M 4.640625 -7.640625 C 3.953125 -7.640625 3.40625 -7.414062 3 -6.96875 C 2.59375 -6.519531 2.351562 -5.898438 2.28125 -5.109375 L 6.75 -5.109375 C 6.75 -5.921875 6.566406 -6.546875 6.203125 -6.984375 C 5.835938 -7.421875 5.316406 -7.640625 4.640625 -7.640625 Z M 4.640625 -7.640625 "/></g></g></g></svg>