<svg xmlns="http://www.w3.org/2000/svg" xmlns:xlink="http://www.w3.org/1999/xlink" width="500" zoomAndPan="magnify" viewBox="0 0 375 374.999991" height="500" preserveAspectRatio="xMidYMid meet" version="1.2"><defs><clipPath id="88188fbf93"><path d="M 57.429688 50.875 L 299.679688 50.875 L 299.679688 293.125 L 57.429688 293.125 Z M 57.429688 50.875 "/></clipPath></defs><g id="c146aed08f"><rect x="0" width="375" y="0" height="374.999991" style="fill:#ffffff;fill-opacity:1;stroke:none;"/><rect x="0" width="375" y="0" height="374.999991" style="fill:#373434;fill-opacity:1;stroke:none;"/><path style=" stroke:none;fill-rule:nonzero;fill:#ff914d;fill-opacity:1;" d="M 217.109375 188.695312 C 223.742188 173.320312 220.820312 154.808594 208.273438 142.265625 C 198.273438 132.265625 184.496094 128.410156 171.546875 130.628906 L 196.046875 155.128906 L 187.886719 181.28125 L 161.800781 189.507812 L 137.300781 165.007812 C 135.109375 177.984375 138.984375 191.785156 148.984375 201.785156 C 161.523438 214.328125 180.007812 217.222656 195.339844 210.546875 L 257.789062 272.996094 C 263.808594 279.015625 273.5625 279.003906 279.574219 272.96875 C 285.585938 266.9375 285.578125 257.164062 279.558594 251.144531 L 217.109375 188.695312 "/><g clip-rule="nonzero" clip-path="url(#88188fbf93)"><path style=" stroke:none;fill-rule:nonzero;fill:#ff914d;fill-opacity:1;" d="M 271.304688 154.574219 C 268.855469 141.476562 263.746094 129.328125 256.492188 118.734375 L 272.730469 94.886719 L 255.691406 77.84375 L 231.84375 94.085938 C 221.25 86.828125 209.101562 81.71875 196 79.269531 L 190.617188 50.890625 L 166.515625 50.890625 L 161.132812 79.269531 C 148.03125 81.71875 135.882812 86.828125 125.289062 94.085938 L 101.441406 77.84375 L 84.402344 94.886719 L 100.640625 118.734375 C 93.386719 129.328125 88.277344 141.476562 85.828125 154.574219 L 57.445312 159.960938 L 57.445312 184.058594 L 85.828125 189.445312 C 88.277344 202.542969 93.386719 214.691406 100.640625 225.285156 L 84.402344 249.132812 L 101.441406 266.175781 L 125.289062 249.933594 C 135.882812 257.191406 148.03125 262.300781 161.132812 264.75 L 166.515625 293.128906 L 190.617188 293.128906 L 196 264.75 C 202.785156 263.480469 209.300781 261.46875 215.492188 258.84375 L 193.890625 237.261719 C 188.960938 238.417969 183.847656 239.089844 178.566406 239.089844 C 141.519531 239.089844 111.484375 209.058594 111.484375 172.011719 C 111.484375 134.960938 141.519531 104.929688 178.566406 104.929688 C 215.613281 104.929688 245.648438 134.960938 245.648438 172.011719 C 245.648438 177.296875 244.972656 182.417969 243.816406 187.351562 L 265.40625 208.921875 C 268.027344 202.734375 270.039062 196.222656 271.304688 189.445312 L 299.6875 184.058594 L 299.6875 159.960938 L 271.304688 154.574219 "/></g><g style="fill:#000000;fill-opacity:1;"><g transform="translate(-5.046123, 380.624975)"><path style="stroke:none" d="M 5 0.15625 C 3.726562 0.15625 2.726562 -0.226562 2 -1 C 1.269531 -1.769531 0.90625 -2.84375 0.90625 -4.21875 C 0.90625 -5.59375 1.242188 -6.6875 1.921875 -7.5 C 2.597656 -8.3125 3.507812 -8.71875 4.65625 -8.71875 C 5.726562 -8.71875 6.578125 -8.363281 7.203125 -7.65625 C 7.828125 -6.957031 8.140625 -6.03125 8.140625 -4.875 L 8.140625 -4.046875 L 2.25 -4.046875 C 2.269531 -3.046875 2.519531 -2.285156 3 -1.765625 C 3.488281 -1.242188 4.171875 -0.984375 5.046875 -0.984375 C 5.960938 -0.984375 6.875 -1.175781 7.78125 -1.5625 L 7.78125 -0.40625 C 7.320312 -0.207031 6.882812 -0.0664062 6.46875 0.015625 C 6.0625 0.109375 5.570312 0.15625 5 0.15625 Z M 4.640625 -7.640625 C 3.953125 -7.640625 3.40625 -7.414062 3 -6.96875 C 2.59375 -6.519531 2.351562 -5.898438 2.28125 -5.109375 L 6.75 -5.109375 C 6.75 -5.921875 6.566406 -6.546875 6.203125 -6.984375 C 5.835938 -7.421875 5.316406 -7.640625 4.640625 -7.640625 Z M 4.640625 -7.640625 "/></g></g></g></svg>